<svg width="17" height="16" viewBox="0 0 17 16" fill="none" xmlns="http://www.w3.org/2000/svg">
<path d="M11.7565 5.37477C10.527 5.37477 9.39512 5.80037 8.5 6.51168C7.60488 5.80034 6.47302 5.37477 5.24347 5.37477C2.35218 5.37477 0 7.72698 0 10.6182C0 13.5095 2.35218 15.8617 5.24347 15.8617C6.47302 15.8617 7.60488 15.4361 8.5 14.7248C9.39512 15.4361 10.527 15.8617 11.7565 15.8617C14.6478 15.8617 17 13.5095 17 10.6182C17 7.72698 14.6478 5.37477 11.7565 5.37477ZM5.2435 14.753C2.96354 14.753 1.10869 12.8981 1.10869 10.6182C1.10869 8.33832 2.96355 6.48349 5.24347 6.48349C6.16383 6.48349 7.01482 6.7859 7.70263 7.29637C6.95964 8.20142 6.51309 9.35861 6.51309 10.6182C6.51309 11.8778 6.95967 13.035 7.70266 13.9401C7.01489 14.4506 6.16386 14.753 5.2435 14.753ZM7.62178 10.6182C7.62178 9.65924 7.95002 8.77547 8.5 8.07329C9.04994 8.77547 9.37822 9.6592 9.37822 10.6182C9.37822 11.5773 9.04994 12.461 8.5 13.1632C7.95006 12.461 7.62178 11.5772 7.62178 10.6182ZM11.7565 14.753C10.8362 14.753 9.98514 14.4506 9.29737 13.9401C10.0404 13.035 10.4869 11.8778 10.4869 10.6182C10.4869 9.35861 10.0404 8.20139 9.29741 7.29637C9.98518 6.78587 10.8362 6.48346 11.7566 6.48346C14.0365 6.48346 15.8913 8.33832 15.8913 10.6182C15.8913 12.8982 14.0365 14.753 11.7565 14.753Z" fill="#191919"/>
<path d="M7.35246 4.48824C7.70133 4.75809 8.17799 5.06797 8.19811 5.08102L8.49993 5.27692L8.80175 5.08102C8.82187 5.06794 9.29846 4.75809 9.6474 4.48824C10.451 3.86671 11.3735 3.02448 11.3735 2.01986C11.3735 0.982393 10.5294 0.138336 9.49194 0.138336C9.13829 0.138336 8.79507 0.238377 8.49996 0.421492C8.20485 0.238344 7.86167 0.138336 7.50799 0.138336C6.47052 0.138336 5.62646 0.982393 5.62646 2.01986C5.6264 3.02448 6.54885 3.86671 7.35246 4.48824ZM7.50795 1.24702C7.72826 1.24702 7.93883 1.34175 8.08565 1.50687L8.49993 1.97288L8.91421 1.5069C9.06103 1.34178 9.2716 1.24705 9.49191 1.24705C9.91804 1.24705 10.2647 1.59373 10.2647 2.01989C10.2647 2.41092 9.82882 2.94636 8.96909 3.61128C8.82356 3.72381 8.64722 3.84805 8.49993 3.94899C8.35261 3.84809 8.17627 3.72384 8.03077 3.61128C7.17104 2.94636 6.73512 2.41092 6.73512 2.01989C6.73512 1.59373 7.08179 1.24702 7.50795 1.24702Z" fill="#191919"/>
</svg>
