<svg width="17" height="18" viewBox="0 0 17 18" fill="none" xmlns="http://www.w3.org/2000/svg">
<path d="M8.61331 8.19959C8.54248 8.1925 8.45748 8.1925 8.37956 8.19959C6.69373 8.14292 5.35498 6.76167 5.35498 5.06167C5.35498 3.32626 6.75748 1.91667 8.49998 1.91667C10.2354 1.91667 11.645 3.32626 11.645 5.06167C11.6379 6.76167 10.2991 8.14292 8.61331 8.19959Z" stroke="#F8F8FF" stroke-width="1.5" stroke-linecap="round" stroke-linejoin="round"/>
<path d="M5.07176 10.8133C3.35759 11.9608 3.35759 13.8308 5.07176 14.9712C7.01967 16.2746 10.2143 16.2746 12.1622 14.9712C13.8763 13.8237 13.8763 11.9537 12.1622 10.8133C10.2213 9.51708 7.02676 9.51708 5.07176 10.8133Z" stroke="#F8F8FF" stroke-width="1.5" stroke-linecap="round" stroke-linejoin="round"/>
</svg>
