<svg width="15" height="14" viewBox="0 0 15 14" fill="none" xmlns="http://www.w3.org/2000/svg">
<path fill-rule="evenodd" clip-rule="evenodd" d="M5.65308 1.19487C5.48397 1.36416 5.37489 1.78066 5.37489 2.25737V3.04167H3.52383C0.366083 3.04167 0.416552 2.95543 0.416552 8.35417C0.416552 12.6603 0.49199 13.1287 1.24123 13.4701C1.83871 13.7423 13.1611 13.7423 13.7585 13.4701C14.5078 13.1287 14.5832 12.6603 14.5832 8.35417C14.5832 2.95543 14.6337 3.04167 11.4759 3.04167H9.62489V2.25737C9.62489 1.08118 9.36422 0.916672 7.49989 0.916672C6.31006 0.916672 5.86417 0.983786 5.65308 1.19487ZM6.79155 2.68751C6.79155 2.9827 6.90967 3.04167 7.49989 3.04167C8.09011 3.04167 8.20822 2.9827 8.20822 2.68751C8.20822 2.39231 8.09011 2.33334 7.49989 2.33334C6.90967 2.33334 6.79155 2.39231 6.79155 2.68751ZM1.83322 8.35417V12.25H13.1666V4.45834H11.7499V5.87501H10.3332V4.45834H4.66655V5.87501H3.24989V4.45834H1.83322V8.35417ZM8.56239 6.93751C8.36759 7.1323 8.20822 7.45105 8.20822 7.64584C8.20822 7.84063 8.36759 8.15938 8.56239 8.35417C9.19723 8.98902 10.3332 8.53462 10.3332 7.64584C10.3332 7.45105 10.1738 7.1323 9.97905 6.93751C9.78426 6.74271 9.46551 6.58334 9.27072 6.58334C9.07593 6.58334 8.75718 6.74271 8.56239 6.93751ZM10.1119 9.33893C9.25974 9.77332 8.56239 10.165 8.56239 10.2095C8.56239 10.2537 8.69361 10.5654 8.85404 10.9017L9.1457 11.5135L10.7887 10.6973L12.4315 9.88134L12.0871 9.2063C11.8976 8.83495 11.7244 8.53533 11.7021 8.54029C11.6796 8.54507 10.9642 8.90455 10.1119 9.33893Z" fill="#191919"/>
</svg>
